<svg id="Layer_1" data-name="Layer 1" xmlns="http://www.w3.org/2000/svg" viewBox="0 0 203.92 218.25"><defs><style>.cls-1{fill:#8c8c8c;}</style></defs><title>qgis</title><path class="cls-1" d="M143.39,184.73c-1.33-1.42-2-2.17-2.69-2.87-7.5-7.49-15.08-14.91-22.48-22.5a5.25,5.25,0,0,0-5.45-1.62,54.13,54.13,0,0,1-23-.43c-34.08-7.8-54.86-41.56-46.26-76.12,5.61-22.55,20-37.65,42.44-44s42.41-1.31,58.77,15.24c15.64,15.83,20,35.4,16.16,57-.44,2.48-.12,4.09,1.74,5.91,8.7,8.48,17.23,17.13,25.82,25.72.7.7,1.45,1.36,2.33,2.18A92.27,92.27,0,0,0,202.9,97.6c0-34.2-14-61.21-42.76-79.76-25-16.11-52.69-19.49-81.57-14C33,12.52,1.52,49.35,1.37,95.16c-.12,39.74,18.21,68.89,53.84,86.53,21.65,10.71,44.74,12.64,68.34,8.21C130,188.68,136.37,186.59,143.39,184.73Zm57.5,10.67c0-8.63.09-16.93-.08-25.23A6.73,6.73,0,0,0,199,166q-18.85-18.89-37.9-37.59c-3.65-3.6-6.84-8.48-11.26-10.28s-10.12-.47-15.25-.49c-4.19,0-8.37,0-12.77,0,0,9.14.07,17.86,0,26.59a6.4,6.4,0,0,0,2.17,5.08c13.09,12.95,26.35,25.73,39,39.08,5,5.26,10,7.9,17.32,7.18C187,194.87,193.81,195.4,200.89,195.4ZM84.92,82.14c0,9.36,0,18.29.07,27.21a4.5,4.5,0,0,0,1.54,2.5q10.65,10.73,21.39,21.36a27.46,27.46,0,0,0,2.21,1.69V105.64h27.36C130,98,122.65,90.47,115.29,83a3,3,0,0,0-1.87-.84C104.07,82.12,94.72,82.14,84.92,82.14Z"/><path class="cls-1" d="M143.39,184.73c-7,1.86-13.35,4-19.84,5.17-23.6,4.43-46.69,2.5-68.34-8.21-35.63-17.64-54-46.79-53.84-86.53C1.52,49.35,33,12.52,78.57,3.85c28.88-5.5,56.54-2.12,81.57,14C189,36.39,202.91,63.4,202.9,97.6a92.27,92.27,0,0,1-12.11,45.67c-.88-.82-1.63-1.48-2.33-2.18-8.59-8.59-17.12-17.24-25.82-25.72-1.86-1.82-2.18-3.43-1.74-5.91,3.85-21.59-.52-41.16-16.16-57C128.38,35.92,108.23,31,86,37.23s-36.83,21.41-42.44,44c-8.6,34.56,12.18,68.32,46.26,76.12a54.13,54.13,0,0,0,23,.43,5.25,5.25,0,0,1,5.45,1.62c7.4,7.59,15,15,22.48,22.5C141.41,182.56,142.06,183.31,143.39,184.73Z"/><path class="cls-1" d="M200.89,195.4c-7.08,0-13.89-.53-20.58.14-7.34.72-12.33-1.92-17.32-7.18-12.67-13.35-25.93-26.13-39-39.08a6.4,6.4,0,0,1-2.17-5.08c.12-8.73,0-17.45,0-26.59,4.4,0,8.58,0,12.77,0,5.13,0,10.83-1.3,15.25.49s7.61,6.68,11.26,10.28q19,18.75,37.9,37.59a6.73,6.73,0,0,1,1.78,4.2C201,178.47,200.89,186.77,200.89,195.4Z"/><path class="cls-1" d="M84.92,82.14c9.8,0,19.15,0,28.5,0a3,3,0,0,1,1.87.84c7.36,7.46,14.68,14.95,22.2,22.63H110.13V134.9a27.46,27.46,0,0,1-2.21-1.69q-10.71-10.65-21.39-21.36a4.5,4.5,0,0,1-1.54-2.5C84.88,100.43,84.92,91.5,84.92,82.14Z"/></svg>